<svg id="visual" viewBox="0 0 960 540" width="960" height="540" xmlns="http://www.w3.org/2000/svg" xmlns:xlink="http://www.w3.org/1999/xlink" version="1.1"><rect width="960" height="540" fill="#08707f"></rect><g><g transform="translate(676 239)"><path d="M63.4 -18.5C73 9 65.4 44.2 42.3 61.9C19.2 79.5 -19.3 79.6 -41.3 62.3C-63.2 45.1 -68.6 10.5 -59 -17C-49.3 -44.6 -24.7 -65.1 1.1 -65.5C26.9 -65.8 53.8 -46 63.4 -18.5Z" fill="#7bcbd7"></path></g><g transform="translate(275 231)"><path d="M60.1 -22.4C67.6 3.6 56.4 32.8 34 49.7C11.7 66.6 -21.7 71.2 -41.8 56.8C-62 42.3 -68.9 8.8 -59.7 -19.4C-50.5 -47.7 -25.3 -70.9 0.5 -71C26.3 -71.2 52.6 -48.4 60.1 -22.4Z" fill="#7bcbd7"></path></g><g transform="translate(820 421)"><path d="M56 -19.4C63.2 4.1 53.4 32 34.2 45.6C15.1 59.1 -13.3 58.3 -32.9 44.3C-52.5 30.3 -63.3 3.1 -56.3 -20C-49.3 -43.2 -24.7 -62.3 -0.2 -62.2C24.4 -62.2 48.7 -43 56 -19.4Z" fill="#7bcbd7"></path></g><g transform="translate(506 393)"><path d="M63.6 -21.1C72.2 5.7 61.8 38.2 39.4 54.4C17.1 70.7 -17.1 70.6 -39.1 54.5C-61.1 38.3 -70.9 6.1 -62.3 -20.7C-53.8 -47.4 -26.9 -68.6 0.3 -68.7C27.5 -68.8 55 -47.8 63.6 -21.1Z" fill="#7bcbd7"></path></g><g transform="translate(467 165)"><path d="M64.1 -23.2C71.6 2.1 58.1 31.8 35 48.8C11.8 65.7 -21 70 -44.1 54.6C-67.3 39.2 -80.7 4.3 -71.7 -23.1C-62.7 -50.5 -31.4 -70.3 -1.5 -69.9C28.3 -69.4 56.7 -48.5 64.1 -23.2Z" fill="#7bcbd7"></path></g><g transform="translate(143 416)"><path d="M56.1 -16.1C63.3 4.1 53.4 31.9 34.5 45.1C15.6 58.2 -12.2 56.6 -29.4 43.4C-46.6 30.2 -53.3 5.4 -46.6 -14C-39.9 -33.4 -20 -47.2 2.2 -48C24.4 -48.7 48.8 -36.2 56.1 -16.1Z" fill="#7bcbd7"></path></g><g transform="translate(105 119)"><path d="M49 -13.9C55.4 3.9 47 28.5 30.2 40.4C13.4 52.3 -11.8 51.6 -28.5 39.4C-45.2 27.2 -53.5 3.6 -47.4 -13.8C-41.2 -31.2 -20.6 -42.3 0.3 -42.4C21.3 -42.5 42.6 -31.6 49 -13.9Z" fill="#7bcbd7"></path></g></g></svg>