<svg id="visual" viewBox="0 0 960 540" width="960" height="540" xmlns="http://www.w3.org/2000/svg" xmlns:xlink="http://www.w3.org/1999/xlink" version="1.1"><rect x="0" y="0" width="960" height="540" fill="#08707f"></rect><path d="M0 118L22.8 107.7C45.7 97.3 91.3 76.7 137 79.3C182.7 82 228.3 108 274 114.7C319.7 121.3 365.3 108.7 411.2 97.8C457 87 503 78 548.8 82.3C594.7 86.7 640.3 104.3 686 112.3C731.7 120.3 777.3 118.7 823 110.8C868.7 103 914.3 89 937.2 82L960 75L960 0L937.2 0C914.3 0 868.7 0 823 0C777.3 0 731.7 0 686 0C640.3 0 594.7 0 548.8 0C503 0 457 0 411.2 0C365.3 0 319.7 0 274 0C228.3 0 182.7 0 137 0C91.3 0 45.7 0 22.8 0L0 0Z" fill="#7BCBD7" stroke-linecap="round" stroke-linejoin="miter"></path></svg>