<svg id="visual" viewBox="0 0 960 540" width="960" height="540" xmlns="http://www.w3.org/2000/svg" xmlns:xlink="http://www.w3.org/1999/xlink" version="1.1"><path d="M0 109L40 116.2C80 123.3 160 137.7 240 133.2C320 128.7 400 105.3 480 98.2C560 91 640 100 720 105.3C800 110.7 880 112.3 920 113.2L960 114L960 0L920 0C880 0 800 0 720 0C640 0 560 0 480 0C400 0 320 0 240 0C160 0 80 0 40 0L0 0Z" fill="#08707f"></path><path d="M0 190L40 192.7C80 195.3 160 200.7 240 192.5C320 184.3 400 162.7 480 163.7C560 164.7 640 188.3 720 198.3C800 208.3 880 204.7 920 202.8L960 201L960 112L920 111.2C880 110.3 800 108.7 720 103.3C640 98 560 89 480 96.2C400 103.3 320 126.7 240 131.2C160 135.7 80 121.3 40 114.2L0 107Z" fill="#4194a3"></path><path d="M0 249L40 253.5C80 258 160 267 240 260.8C320 254.7 400 233.3 480 229.8C560 226.3 640 240.7 720 246.8C800 253 880 251 920 250L960 249L960 199L920 200.8C880 202.7 800 206.3 720 196.3C640 186.3 560 162.7 480 161.7C400 160.7 320 182.3 240 190.5C160 198.7 80 193.3 40 190.7L0 188Z" fill="#6bbbc8"></path><path d="M0 282L40 291.8C80 301.7 160 321.3 240 317.7C320 314 400 287 480 285.2C560 283.3 640 306.7 720 317.5C800 328.3 880 326.7 920 325.8L960 325L960 247L920 248C880 249 800 251 720 244.8C640 238.7 560 224.3 480 227.8C400 231.3 320 252.7 240 258.8C160 265 80 256 40 251.5L0 247Z" fill="#7bcbd7"></path><path d="M0 422L40 425.7C80 429.3 160 436.7 240 440.3C320 444 400 444 480 442.2C560 440.3 640 436.7 720 435.7C800 434.7 880 436.3 920 437.2L960 438L960 323L920 323.8C880 324.7 800 326.3 720 315.5C640 304.7 560 281.3 480 283.2C400 285 320 312 240 315.7C160 319.3 80 299.7 40 289.8L0 280Z" fill="#6bbbc8"></path><path d="M0 509L40 509C80 509 160 509 240 510.7C320 512.3 400 515.7 480 512.8C560 510 640 501 720 494.8C800 488.7 880 485.3 920 483.7L960 482L960 436L920 435.2C880 434.3 800 432.7 720 433.7C640 434.7 560 438.3 480 440.2C400 442 320 442 240 438.3C160 434.7 80 427.3 40 423.7L0 420Z" fill="#4194a3"></path><path d="M0 541L40 541C80 541 160 541 240 541C320 541 400 541 480 541C560 541 640 541 720 541C800 541 880 541 920 541L960 541L960 480L920 481.7C880 483.3 800 486.7 720 492.8C640 499 560 508 480 510.8C400 513.7 320 510.3 240 508.7C160 507 80 507 40 507L0 507Z" fill="#08707f"></path></svg>