<svg id="visual" viewBox="0 0 960 540" width="960" height="540" xmlns="http://www.w3.org/2000/svg" xmlns:xlink="http://www.w3.org/1999/xlink" version="1.1"><rect x="0" y="0" width="960" height="540" fill="#08707f"></rect><path d="M0 88L22.8 80.3C45.7 72.7 91.3 57.3 137 59.3C182.7 61.3 228.3 80.7 274 85.5C319.7 90.3 365.3 80.7 411.2 72.7C457 64.7 503 58.3 548.8 61.7C594.7 65 640.3 78 686 84C731.7 90 777.3 89 823 83.2C868.7 77.3 914.3 66.7 937.2 61.3L960 56L960 0L937.2 0C914.3 0 868.7 0 823 0C777.3 0 731.7 0 686 0C640.3 0 594.7 0 548.8 0C503 0 457 0 411.2 0C365.3 0 319.7 0 274 0C228.3 0 182.7 0 137 0C91.3 0 45.7 0 22.8 0L0 0Z" fill="#7BCBD7" stroke-linecap="round" stroke-linejoin="miter"></path></svg>