<svg id="visual" viewBox="0 0 900 600" width="100vw" height="100vh" xmlns="http://www.w3.org/2000/svg" xmlns:xlink="http://www.w3.org/1999/xlink" version="1.1"><path d="M0 145L21.5 137.7C43 130.3 86 115.7 128.8 107.3C171.7 99 214.3 97 257.2 95.7C300 94.3 343 93.7 385.8 95.2C428.7 96.7 471.3 100.3 514.2 107C557 113.7 600 123.3 642.8 122.8C685.7 122.3 728.3 111.7 771.2 112.5C814 113.3 857 125.7 878.5 131.8L900 138L900 0L878.5 0C857 0 814 0 771.2 0C728.3 0 685.7 0 642.8 0C600 0 557 0 514.2 0C471.3 0 428.7 0 385.8 0C343 0 300 0 257.2 0C214.3 0 171.7 0 128.8 0C86 0 43 0 21.5 0L0 0Z" fill="#13a5bb"></path><path d="M0 103L21.5 103.7C43 104.3 86 105.7 128.8 106C171.7 106.3 214.3 105.7 257.2 107.8C300 110 343 115 385.8 112.5C428.7 110 471.3 100 514.2 92.7C557 85.3 600 80.7 642.8 83.7C685.7 86.7 728.3 97.3 771.2 99.2C814 101 857 94 878.5 90.5L900 87L900 0L878.5 0C857 0 814 0 771.2 0C728.3 0 685.7 0 642.8 0C600 0 557 0 514.2 0C471.3 0 428.7 0 385.8 0C343 0 300 0 257.2 0C214.3 0 171.7 0 128.8 0C86 0 43 0 21.5 0L0 0Z" fill="#1097ab"></path><path d="M0 84L21.5 81.3C43 78.7 86 73.3 128.8 74.7C171.7 76 214.3 84 257.2 85C300 86 343 80 385.8 74.3C428.7 68.7 471.3 63.3 514.2 61.8C557 60.3 600 62.7 642.8 63.8C685.7 65 728.3 65 771.2 67.8C814 70.7 857 76.3 878.5 79.2L900 82L900 0L878.5 0C857 0 814 0 771.2 0C728.3 0 685.7 0 642.8 0C600 0 557 0 514.2 0C471.3 0 428.7 0 385.8 0C343 0 300 0 257.2 0C214.3 0 171.7 0 128.8 0C86 0 43 0 21.5 0L0 0Z" fill="#0d8a9c"></path><path d="M0 51L21.5 52.5C43 54 86 57 128.8 55.3C171.7 53.7 214.3 47.3 257.2 49C300 50.7 343 60.3 385.8 61C428.7 61.7 471.3 53.3 514.2 50.2C557 47 600 49 642.8 48.3C685.7 47.7 728.3 44.3 771.2 44.2C814 44 857 47 878.5 48.5L900 50L900 0L878.5 0C857 0 814 0 771.2 0C728.3 0 685.7 0 642.8 0C600 0 557 0 514.2 0C471.3 0 428.7 0 385.8 0C343 0 300 0 257.2 0C214.3 0 171.7 0 128.8 0C86 0 43 0 21.5 0L0 0Z" fill="#0a7d8d"></path><path d="M0 24L21.5 22.3C43 20.7 86 17.3 128.8 19.3C171.7 21.3 214.3 28.7 257.2 31C300 33.3 343 30.7 385.8 30.3C428.7 30 471.3 32 514.2 32C557 32 600 30 642.8 30.8C685.7 31.7 728.3 35.3 771.2 35.3C814 35.3 857 31.7 878.5 29.8L900 28L900 0L878.5 0C857 0 814 0 771.2 0C728.3 0 685.7 0 642.8 0C600 0 557 0 514.2 0C471.3 0 428.7 0 385.8 0C343 0 300 0 257.2 0C214.3 0 171.7 0 128.8 0C86 0 43 0 21.5 0L0 0Z" fill="#08707f"></path></svg>