<svg id="visual" viewBox="0 0 960 540" width="960" height="540" xmlns="http://www.w3.org/2000/svg" xmlns:xlink="http://www.w3.org/1999/xlink" version="1.1"><rect x="0" y="0" width="960" height="540" fill="#08707f"></rect><path d="M0 320L22.8 325C45.7 330 91.3 340 137 349.2C182.7 358.3 228.3 366.7 274 361.2C319.7 355.7 365.3 336.3 411.2 327.8C457 319.3 503 321.7 548.8 326.8C594.7 332 640.3 340 686 340C731.7 340 777.3 332 823 329.8C868.7 327.7 914.3 331.3 937.2 333.2L960 335L960 541L937.2 541C914.3 541 868.7 541 823 541C777.3 541 731.7 541 686 541C640.3 541 594.7 541 548.8 541C503 541 457 541 411.2 541C365.3 541 319.7 541 274 541C228.3 541 182.7 541 137 541C91.3 541 45.7 541 22.8 541L0 541Z" fill="#97b7bc"></path><path d="M0 392L22.8 391.7C45.7 391.3 91.3 390.7 137 390.7C182.7 390.7 228.3 391.3 274 387.5C319.7 383.7 365.3 375.3 411.2 374.2C457 373 503 379 548.8 377.3C594.7 375.7 640.3 366.3 686 369.8C731.7 373.3 777.3 389.7 823 397.3C868.7 405 914.3 404 937.2 403.5L960 403L960 541L937.2 541C914.3 541 868.7 541 823 541C777.3 541 731.7 541 686 541C640.3 541 594.7 541 548.8 541C503 541 457 541 411.2 541C365.3 541 319.7 541 274 541C228.3 541 182.7 541 137 541C91.3 541 45.7 541 22.8 541L0 541Z" fill="#7aa5ac"></path><path d="M0 432L22.8 431.8C45.7 431.7 91.3 431.3 137 433.5C182.7 435.7 228.3 440.3 274 437C319.7 433.7 365.3 422.3 411.2 423.2C457 424 503 437 548.8 443.5C594.7 450 640.3 450 686 450.3C731.7 450.7 777.3 451.3 823 449C868.7 446.7 914.3 441.3 937.2 438.7L960 436L960 541L937.2 541C914.3 541 868.7 541 823 541C777.3 541 731.7 541 686 541C640.3 541 594.7 541 548.8 541C503 541 457 541 411.2 541C365.3 541 319.7 541 274 541C228.3 541 182.7 541 137 541C91.3 541 45.7 541 22.8 541L0 541Z" fill="#5d939d"></path><path d="M0 470L22.8 471.2C45.7 472.3 91.3 474.7 137 477.5C182.7 480.3 228.3 483.7 274 482C319.7 480.3 365.3 473.7 411.2 473.7C457 473.7 503 480.3 548.8 476.8C594.7 473.3 640.3 459.7 686 451C731.7 442.3 777.3 438.7 823 444C868.7 449.3 914.3 463.7 937.2 470.8L960 478L960 541L937.2 541C914.3 541 868.7 541 823 541C777.3 541 731.7 541 686 541C640.3 541 594.7 541 548.8 541C503 541 457 541 411.2 541C365.3 541 319.7 541 274 541C228.3 541 182.7 541 137 541C91.3 541 45.7 541 22.8 541L0 541Z" fill="#3c818e"></path><path d="M0 478L22.8 482.3C45.7 486.7 91.3 495.3 137 499.2C182.7 503 228.3 502 274 501.8C319.7 501.7 365.3 502.3 411.2 501.3C457 500.3 503 497.7 548.8 495C594.7 492.3 640.3 489.7 686 487.3C731.7 485 777.3 483 823 486.5C868.7 490 914.3 499 937.2 503.5L960 508L960 541L937.2 541C914.3 541 868.7 541 823 541C777.3 541 731.7 541 686 541C640.3 541 594.7 541 548.8 541C503 541 457 541 411.2 541C365.3 541 319.7 541 274 541C228.3 541 182.7 541 137 541C91.3 541 45.7 541 22.8 541L0 541Z" fill="#08707f"></path></svg>