 <svg
        id="visual"
        viewBox="0 0 960 540"
        width="960"
        height="540"
        xmlns="http://www.w3.org/2000/svg"
        xmlns:xlink="http://www.w3.org/1999/xlink"
        version="1.1"
      >
        <rect x="0" y="0" width="960" height="540" fill="#08707f"></rect>
        <path
    d="M0 341L22.8 344.8C45.7 348.7 91.3 356.3 137 353.2C182.7 350 228.3 336 274 330.3C319.7 324.7 365.3 327.3 411.2 339.3C457 351.3 503 372.7 548.8 381.5C594.7 390.3 640.3 386.7 686 381.8C731.7 377 777.3 371 823 365.3C868.7 359.7 914.3 354.3 937.2 351.7L960 349L960 541L937.2 541C914.3 541 868.7 541 823 541C777.3 541 731.7 541 686 541C640.3 541 594.7 541 548.8 541C503 541 457 541 411.2 541C365.3 541 319.7 541 274 541C228.3 541 182.7 541 137 541C91.3 541 45.7 541 22.8 541L0 541Z"
    fill="#2daec2"
  >
    <animate
      attributeName="d"
      begin="0s"
      dur="20s"
      repeatCount="indefinite"
      values="
        M0 341L22.8 344.8C45.7 348.7 91.3 356.3 137 353.2C182.7 350 228.3 336 274 330.3C319.7 324.7 365.3 327.3 411.2 339.3C457 351.3 503 372.7 548.8 381.5C594.7 390.3 640.3 386.7 686 381.8C731.7 377 777.3 371 823 365.3C868.7 359.7 914.3 354.3 937.2 351.7L960 349L960 541L937.2 541C914.3 541 868.7 541 823 541C777.3 541 731.7 541 686 541C640.3 541 594.7 541 548.8 541C503 541 457 541 411.2 541C365.3 541 319.7 541 274 541C228.3 541 182.7 541 137 541C91.3 541 45.7 541 22.8 541L0 541Z;

        M0 364L22.8 365C45.7 366 91.3 368 137 370.5C182.7 373 228.3 376 274 372.3C319.7 368.7 365.3 358.3 411.2 359.2C457 360 503 372 548.8 376.3C594.7 380.7 640.3 377.3 686 371.3C731.7 365.3 777.3 356.7 823 348.5C868.7 340.3 914.3 332.7 937.2 328.8L960 325L960 541L937.2 541C914.3 541 868.7 541 823 541C777.3 541 731.7 541 686 541C640.3 541 594.7 541 548.8 541C503 541 457 541 411.2 541C365.3 541 319.7 541 274 541C228.3 541 182.7 541 137 541C91.3 541 45.7 541 22.8 541L0 541Z;

        M0 326L22.8 330.5C45.7 335 91.3 344 137 355.3C182.7 366.7 228.3 380.3 274 382.7C319.7 385 365.3 376 411.2 365.2C457 354.3 503 341.7 548.8 343.3C594.7 345 640.3 361 686 370C731.7 379 777.3 381 823 378C868.7 375 914.3 367 937.2 363L960 359L960 541L937.2 541C914.3 541 868.7 541 823 541C777.3 541 731.7 541 686 541C640.3 541 594.7 541 548.8 541C503 541 457 541 411.2 541C365.3 541 319.7 541 274 541C228.3 541 182.7 541 137 541C91.3 541 45.7 541 22.8 541L0 541Z;

        M0 372L22.8 364.5C45.7 357 91.3 342 137 333.5C182.7 325 228.3 323 274 328.2C319.7 333.3 365.3 345.7 411.2 357.3C457 369 503 380 548.8 382.8C594.7 385.7 640.3 380.3 686 370.3C731.7 360.3 777.3 345.7 823 349.3C868.7 353 914.3 375 937.2 386L960 397L960 541L937.2 541C914.3 541 868.7 541 823 541C777.3 541 731.7 541 686 541C640.3 541 594.7 541 548.8 541C503 541 457 541 411.2 541C365.3 541 319.7 541 274 541C228.3 541 182.7 541 137 541C91.3 541 45.7 541 22.8 541L0 541Z;
        M0 341L22.8 344.8C45.7 348.7 91.3 356.3 137 353.2C182.7 350 228.3 336 274 330.3C319.7 324.7 365.3 327.3 411.2 339.3C457 351.3 503 372.7 548.8 381.5C594.7 390.3 640.3 386.7 686 381.8C731.7 377 777.3 371 823 365.3C868.7 359.7 914.3 354.3 937.2 351.7L960 349L960 541L937.2 541C914.3 541 868.7 541 823 541C777.3 541 731.7 541 686 541C640.3 541 594.7 541 548.8 541C503 541 457 541 411.2 541C365.3 541 319.7 541 274 541C228.3 541 182.7 541 137 541C91.3 541 45.7 541 22.8 541L0 541Z;

      "
    />

        </path>
         <path
    d="M0 431L22.8 427.7C45.7 424.3 91.3 417.7 137 416.3C182.7 415 228.3 419 274 417.8C319.7 416.7 365.3 410.3 411.2 404.3C457 398.3 503 392.7 548.8 388.5C594.7 384.3 640.3 381.7 686 385.8C731.7 390 777.3 401 823 404.8C868.7 408.7 914.3 405.3 937.2 403.7L960 402L960 541L937.2 541C914.3 541 868.7 541 823 541C777.3 541 731.7 541 686 541C640.3 541 594.7 541 548.8 541C503 541 457 541 411.2 541C365.3 541 319.7 541 274 541C228.3 541 182.7 541 137 541C91.3 541 45.7 541 22.8 541L0 541Z"
    fill="#259eb1"
  >
    <animate
      attributeName="d"
      begin="0s"
      dur="20s"
      repeatCount="indefinite"
      values="
        M0 431L22.8 427.7C45.7 424.3 91.3 417.7 137 416.3C182.7 415 228.3 419 274 417.8C319.7 416.7 365.3 410.3 411.2 404.3C457 398.3 503 392.7 548.8 388.5C594.7 384.3 640.3 381.7 686 385.8C731.7 390 777.3 401 823 404.8C868.7 408.7 914.3 405.3 937.2 403.7L960 402L960 541L937.2 541C914.3 541 868.7 541 823 541C777.3 541 731.7 541 686 541C640.3 541 594.7 541 548.8 541C503 541 457 541 411.2 541C365.3 541 319.7 541 274 541C228.3 541 182.7 541 137 541C91.3 541 45.7 541 22.8 541L0 541Z;


        M0 366L22.8 376.3C45.7 386.7 91.3 407.3 137 408.2C182.7 409 228.3 390 274 381.8C319.7 373.7 365.3 376.3 411.2 381.3C457 386.3 503 393.7 548.8 400.2C594.7 406.7 640.3 412.3 686 415.5C731.7 418.7 777.3 419.3 823 418C868.7 416.7 914.3 413.3 937.2 411.7L960 410L960 541L937.2 541C914.3 541 868.7 541 823 541C777.3 541 731.7 541 686 541C640.3 541 594.7 541 548.8 541C503 541 457 541 411.2 541C365.3 541 319.7 541 274 541C228.3 541 182.7 541 137 541C91.3 541 45.7 541 22.8 541L0 541Z;
        M0 385L22.8 381C45.7 377 91.3 369 137 367.2C182.7 365.3 228.3 369.7 274 373C319.7 376.3 365.3 378.7 411.2 383.2C457 387.7 503 394.3 548.8 395.8C594.7 397.3 640.3 393.7 686 390.8C731.7 388 777.3 386 823 391.3C868.7 396.7 914.3 409.3 937.2 415.7L960 422L960 541L937.2 541C914.3 541 868.7 541 823 541C777.3 541 731.7 541 686 541C640.3 541 594.7 541 548.8 541C503 541 457 541 411.2 541C365.3 541 319.7 541 274 541C228.3 541 182.7 541 137 541C91.3 541 45.7 541 22.8 541L0 541Z;

        M0 378L22.8 383.3C45.7 388.7 91.3 399.3 137 399C182.7 398.7 228.3 387.3 274 380.3C319.7 373.3 365.3 370.7 411.2 367C457 363.3 503 358.7 548.8 359.2C594.7 359.7 640.3 365.3 686 365.3C731.7 365.3 777.3 359.7 823 365.2C868.7 370.7 914.3 387.3 937.2 395.7L960 404L960 541L937.2 541C914.3 541 868.7 541 823 541C777.3 541 731.7 541 686 541C640.3 541 594.7 541 548.8 541C503 541 457 541 411.2 541C365.3 541 319.7 541 274 541C228.3 541 182.7 541 137 541C91.3 541 45.7 541 22.8 541L0 541Z;
        
        M0 431L22.8 427.7C45.7 424.3 91.3 417.7 137 416.3C182.7 415 228.3 419 274 417.8C319.7 416.7 365.3 410.3 411.2 404.3C457 398.3 503 392.7 548.8 388.5C594.7 384.3 640.3 381.7 686 385.8C731.7 390 777.3 401 823 404.8C868.7 408.7 914.3 405.3 937.2 403.7L960 402L960 541L937.2 541C914.3 541 868.7 541 823 541C777.3 541 731.7 541 686 541C640.3 541 594.7 541 548.8 541C503 541 457 541 411.2 541C365.3 541 319.7 541 274 541C228.3 541 182.7 541 137 541C91.3 541 45.7 541 22.8 541L0 541Z;
      
      "
    />
        </path>
       <path
    d="M0 445L22.8 440.7C45.7 436.3 91.3 427.7 137 424.3C182.7 421 228.3 423 274 427.2C319.7 431.3 365.3 437.7 411.2 440.8C457 444 503 444 548.8 444.2C594.7 444.3 640.3 444.7 686 436.7C731.7 428.7 777.3 412.3 823 411C868.7 409.7 914.3 423.3 937.2 430.2L960 437L960 541L937.2 541C914.3 541 868.7 541 823 541C777.3 541 731.7 541 686 541C640.3 541 594.7 541 548.8 541C503 541 457 541 411.2 541C365.3 541 319.7 541 274 541C228.3 541 182.7 541 137 541C91.3 541 45.7 541 22.8 541L0 541Z"
    fill="#1c8ea0"
  >
    <animate
      attributeName="d"
      begin="0s"
      dur="20s"
      repeatCount="indefinite"
      values="
        M0 445L22.8 440.7C45.7 436.3 91.3 427.7 137 424.3C182.7 421 228.3 423 274 427.2C319.7 431.3 365.3 437.7 411.2 440.8C457 444 503 444 548.8 444.2C594.7 444.3 640.3 444.7 686 436.7C731.7 428.7 777.3 412.3 823 411C868.7 409.7 914.3 423.3 937.2 430.2L960 437L960 541L937.2 541C914.3 541 868.7 541 823 541C777.3 541 731.7 541 686 541C640.3 541 594.7 541 548.8 541C503 541 457 541 411.2 541C365.3 541 319.7 541 274 541C228.3 541 182.7 541 137 541C91.3 541 45.7 541 22.8 541L0 541Z;

        M0 398L22.8 400.2C45.7 402.3 91.3 406.7 137 409.3C182.7 412 228.3 413 274 411.7C319.7 410.3 365.3 406.7 411.2 414.2C457 421.7 503 440.3 548.8 441.8C594.7 443.3 640.3 427.7 686 423.2C731.7 418.7 777.3 425.3 823 431.7C868.7 438 914.3 444 937.2 447L960 450L960 541L937.2 541C914.3 541 868.7 541 823 541C777.3 541 731.7 541 686 541C640.3 541 594.7 541 548.8 541C503 541 457 541 411.2 541C365.3 541 319.7 541 274 541C228.3 541 182.7 541 137 541C91.3 541 45.7 541 22.8 541L0 541Z;

        M0 451L22.8 446C45.7 441 91.3 431 137 428.5C182.7 426 228.3 431 274 429.8C319.7 428.7 365.3 421.3 411.2 419C457 416.7 503 419.3 548.8 417.5C594.7 415.7 640.3 409.3 686 413.3C731.7 417.3 777.3 431.7 823 437C868.7 442.3 914.3 438.7 937.2 436.8L960 435L960 541L937.2 541C914.3 541 868.7 541 823 541C777.3 541 731.7 541 686 541C640.3 541 594.7 541 548.8 541C503 541 457 541 411.2 541C365.3 541 319.7 541 274 541C228.3 541 182.7 541 137 541C91.3 541 45.7 541 22.8 541L0 541Z;

        M0 435L22.8 430C45.7 425 91.3 415 137 412C182.7 409 228.3 413 274 419C319.7 425 365.3 433 411.2 433.7C457 434.3 503 427.7 548.8 430.5C594.7 433.3 640.3 445.7 686 450.2C731.7 454.7 777.3 451.3 823 445.3C868.7 439.3 914.3 430.7 937.2 426.3L960 422L960 541L937.2 541C914.3 541 868.7 541 823 541C777.3 541 731.7 541 686 541C640.3 541 594.7 541 548.8 541C503 541 457 541 411.2 541C365.3 541 319.7 541 274 541C228.3 541 182.7 541 137 541C91.3 541 45.7 541 22.8 541L0 541Z;
        M0 445L22.8 440.7C45.7 436.3 91.3 427.7 137 424.3C182.7 421 228.3 423 274 427.2C319.7 431.3 365.3 437.7 411.2 440.8C457 444 503 444 548.8 444.2C594.7 444.3 640.3 444.7 686 436.7C731.7 428.7 777.3 412.3 823 411C868.7 409.7 914.3 423.3 937.2 430.2L960 437L960 541L937.2 541C914.3 541 868.7 541 823 541C777.3 541 731.7 541 686 541C640.3 541 594.7 541 548.8 541C503 541 457 541 411.2 541C365.3 541 319.7 541 274 541C228.3 541 182.7 541 137 541C91.3 541 45.7 541 22.8 541L0 541Z;
      
      "
    />
    </path>
       <path
    d="M0 449L22.8 447.5C45.7 446 91.3 443 137 440.7C182.7 438.3 228.3 436.7 274 440.2C319.7 443.7 365.3 452.3 411.2 453C457 453.7 503 446.3 548.8 449.5C594.7 452.7 640.3 466.3 686 471.5C731.7 476.7 777.3 473.3 823 471.5C868.7 469.7 914.3 469.3 937.2 469.2L960 469L960 541L937.2 541C914.3 541 868.7 541 823 541C777.3 541 731.7 541 686 541C640.3 541 594.7 541 548.8 541C503 541 457 541 411.2 541C365.3 541 319.7 541 274 541C228.3 541 182.7 541 137 541C91.3 541 45.7 541 22.8 541L0 541Z"
    fill="#137f8f"
  >
    <animate
      attributeName="d"
      begin="0s"
      dur="20s"
      repeatCount="indefinite"
      values="
        M0 449L22.8 447.5C45.7 446 91.3 443 137 440.7C182.7 438.3 228.3 436.7 274 440.2C319.7 443.7 365.3 452.3 411.2 453C457 453.7 503 446.3 548.8 449.5C594.7 452.7 640.3 466.3 686 471.5C731.7 476.7 777.3 473.3 823 471.5C868.7 469.7 914.3 469.3 937.2 469.2L960 469L960 541L937.2 541C914.3 541 868.7 541 823 541C777.3 541 731.7 541 686 541C640.3 541 594.7 541 548.8 541C503 541 457 541 411.2 541C365.3 541 319.7 541 274 541C228.3 541 182.7 541 137 541C91.3 541 45.7 541 22.8 541L0 541Z;

        M0 448L22.8 445.5C45.7 443 91.3 438 137 438C182.7 438 228.3 443 274 448.3C319.7 453.7 365.3 459.3 411.2 458.3C457 457.3 503 449.7 548.8 452.7C594.7 455.7 640.3 469.3 686 470C731.7 470.7 777.3 458.3 823 457.3C868.7 456.3 914.3 466.7 937.2 471.8L960 477L960 541L937.2 541C914.3 541 868.7 541 823 541C777.3 541 731.7 541 686 541C640.3 541 594.7 541 548.8 541C503 541 457 541 411.2 541C365.3 541 319.7 541 274 541C228.3 541 182.7 541 137 541C91.3 541 45.7 541 22.8 541L0 541Z;

        M0 443L22.8 448.3C45.7 453.7 91.3 464.3 137 466.7C182.7 469 228.3 463 274 460.7C319.7 458.3 365.3 459.7 411.2 455.7C457 451.7 503 442.3 548.8 438.7C594.7 435 640.3 437 686 445.2C731.7 453.3 777.3 467.7 823 471.8C868.7 476 914.3 470 937.2 467L960 464L960 541L937.2 541C914.3 541 868.7 541 823 541C777.3 541 731.7 541 686 541C640.3 541 594.7 541 548.8 541C503 541 457 541 411.2 541C365.3 541 319.7 541 274 541C228.3 541 182.7 541 137 541C91.3 541 45.7 541 22.8 541L0 541Z;

        M0 471L22.8 467.3C45.7 463.7 91.3 456.3 137 456.5C182.7 456.7 228.3 464.3 274 469.3C319.7 474.3 365.3 476.7 411.2 476.5C457 476.3 503 473.7 548.8 472C594.7 470.3 640.3 469.7 686 470C731.7 470.3 777.3 471.7 823 470.7C868.7 469.7 914.3 466.3 937.2 464.7L960 463L960 541L937.2 541C914.3 541 868.7 541 823 541C777.3 541 731.7 541 686 541C640.3 541 594.7 541 548.8 541C503 541 457 541 411.2 541C365.3 541 319.7 541 274 541C228.3 541 182.7 541 137 541C91.3 541 45.7 541 22.8 541L0 541Z;
        M0 449L22.8 447.5C45.7 446 91.3 443 137 440.7C182.7 438.3 228.3 436.7 274 440.2C319.7 443.7 365.3 452.3 411.2 453C457 453.7 503 446.3 548.8 449.5C594.7 452.7 640.3 466.3 686 471.5C731.7 476.7 777.3 473.3 823 471.5C868.7 469.7 914.3 469.3 937.2 469.2L960 469L960 541L937.2 541C914.3 541 868.7 541 823 541C777.3 541 731.7 541 686 541C640.3 541 594.7 541 548.8 541C503 541 457 541 411.2 541C365.3 541 319.7 541 274 541C228.3 541 182.7 541 137 541C91.3 541 45.7 541 22.8 541L0 541Z;
      
      "
    />
  </path>
       <path
    d="M0 478L22.8 478C45.7 478 91.3 478 137 482.5C182.7 487 228.3 496 274 500.5C319.7 505 365.3 505 411.2 503C457 501 503 497 548.8 493.2C594.7 489.3 640.3 485.7 686 483.2C731.7 480.7 777.3 479.3 823 482.8C868.7 486.3 914.3 494.7 937.2 498.8L960 503L960 541L937.2 541C914.3 541 868.7 541 823 541C777.3 541 731.7 541 686 541C640.3 541 594.7 541 548.8 541C503 541 457 541 411.2 541C365.3 541 319.7 541 274 541C228.3 541 182.7 541 137 541C91.3 541 45.7 541 22.8 541L0 541Z"
    fill="#08707f"
  >
    <animate
      attributeName="d"
      begin="0s"
      dur="20s"
      repeatCount="indefinite"
      values="
        M0 478L22.8 478C45.7 478 91.3 478 137 482.5C182.7 487 228.3 496 274 500.5C319.7 505 365.3 505 411.2 503C457 501 503 497 548.8 493.2C594.7 489.3 640.3 485.7 686 483.2C731.7 480.7 777.3 479.3 823 482.8C868.7 486.3 914.3 494.7 937.2 498.8L960 503L960 541L937.2 541C914.3 541 868.7 541 823 541C777.3 541 731.7 541 686 541C640.3 541 594.7 541 548.8 541C503 541 457 541 411.2 541C365.3 541 319.7 541 274 541C228.3 541 182.7 541 137 541C91.3 541 45.7 541 22.8 541L0 541Z;

        M0 487L22.8 489.3C45.7 491.7 91.3 496.3 137 495.3C182.7 494.3 228.3 487.7 274 490C319.7 492.3 365.3 503.7 411.2 509.2C457 514.7 503 514.3 548.8 513C594.7 511.7 640.3 509.3 686 506.5C731.7 503.7 777.3 500.3 823 495.8C868.7 491.3 914.3 485.7 937.2 482.8L960 480L960 541L937.2 541C914.3 541 868.7 541 823 541C777.3 541 731.7 541 686 541C640.3 541 594.7 541 548.8 541C503 541 457 541 411.2 541C365.3 541 319.7 541 274 541C228.3 541 182.7 541 137 541C91.3 541 45.7 541 22.8 541L0 541Z;

        M0 474L22.8 480.7C45.7 487.3 91.3 500.7 137 502.3C182.7 504 228.3 494 274 492.7C319.7 491.3 365.3 498.7 411.2 500C457 501.3 503 496.7 548.8 494.2C594.7 491.7 640.3 491.3 686 494.7C731.7 498 777.3 505 823 509C868.7 513 914.3 514 937.2 514.5L960 515L960 541L937.2 541C914.3 541 868.7 541 823 541C777.3 541 731.7 541 686 541C640.3 541 594.7 541 548.8 541C503 541 457 541 411.2 541C365.3 541 319.7 541 274 541C228.3 541 182.7 541 137 541C91.3 541 45.7 541 22.8 541L0 541Z;

        M0 512L22.8 512.5C45.7 513 91.3 514 137 513C182.7 512 228.3 509 274 508.2C319.7 507.3 365.3 508.7 411.2 507.8C457 507 503 504 548.8 502.5C594.7 501 640.3 501 686 499C731.7 497 777.3 493 823 495.2C868.7 497.3 914.3 505.7 937.2 509.8L960 514L960 541L937.2 541C914.3 541 868.7 541 823 541C777.3 541 731.7 541 686 541C640.3 541 594.7 541 548.8 541C503 541 457 541 411.2 541C365.3 541 319.7 541 274 541C228.3 541 182.7 541 137 541C91.3 541 45.7 541 22.8 541L0 541Z;
        M0 478L22.8 478C45.7 478 91.3 478 137 482.5C182.7 487 228.3 496 274 500.5C319.7 505 365.3 505 411.2 503C457 501 503 497 548.8 493.2C594.7 489.3 640.3 485.7 686 483.2C731.7 480.7 777.3 479.3 823 482.8C868.7 486.3 914.3 494.7 937.2 498.8L960 503L960 541L937.2 541C914.3 541 868.7 541 823 541C777.3 541 731.7 541 686 541C640.3 541 594.7 541 548.8 541C503 541 457 541 411.2 541C365.3 541 319.7 541 274 541C228.3 541 182.7 541 137 541C91.3 541 45.7 541 22.8 541L0 541Z;
        "
      fill="#08707f"
    />
  </path>
      </svg>