<svg id="visual" viewBox="0 0 960 540" width="960" height="540" xmlns="http://www.w3.org/2000/svg" xmlns:xlink="http://www.w3.org/1999/xlink" version="1.1"><rect x="0" y="0" width="960" height="540" fill="#97B7BC"></rect><path d="M0 376L22.8 382.3C45.7 388.7 91.3 401.3 137 404.5C182.7 407.7 228.3 401.3 274 388.7C319.7 376 365.3 357 411.2 353.5C457 350 503 362 548.8 375.7C594.7 389.3 640.3 404.7 686 402.2C731.7 399.7 777.3 379.3 823 367.2C868.7 355 914.3 351 937.2 349L960 347L960 541L937.2 541C914.3 541 868.7 541 823 541C777.3 541 731.7 541 686 541C640.3 541 594.7 541 548.8 541C503 541 457 541 411.2 541C365.3 541 319.7 541 274 541C228.3 541 182.7 541 137 541C91.3 541 45.7 541 22.8 541L0 541Z" fill="#08707f" stroke-linecap="round" stroke-linejoin="miter"></path></svg>