<svg id="visual" viewBox="0 0 960 540" width="960" height="540" xmlns="http://www.w3.org/2000/svg" xmlns:xlink="http://www.w3.org/1999/xlink" version="1.1"><rect x="0" y="0" width="960" height="540" fill="#7BCBD7"></rect><path d="M0 178L22.8 162.3C45.7 146.7 91.3 115.3 137 119.3C182.7 123.3 228.3 162.7 274 172.7C319.7 182.7 365.3 163.3 411.2 147C457 130.7 503 117.3 548.8 124C594.7 130.7 640.3 157.3 686 169.3C731.7 181.3 777.3 178.7 823 166.7C868.7 154.7 914.3 133.3 937.2 122.7L960 112L960 0L937.2 0C914.3 0 868.7 0 823 0C777.3 0 731.7 0 686 0C640.3 0 594.7 0 548.8 0C503 0 457 0 411.2 0C365.3 0 319.7 0 274 0C228.3 0 182.7 0 137 0C91.3 0 45.7 0 22.8 0L0 0Z" fill="#08707f" stroke-linecap="round" stroke-linejoin="miter"></path></svg>