<svg id="visual" viewBox="0 0 960 540" width="960" height="540" xmlns="http://www.w3.org/2000/svg" xmlns:xlink="http://www.w3.org/1999/xlink" version="1.1"><rect x="0" y="0" width="960" height="540" fill="#97B7BC"></rect><defs><linearGradient id="grad1_0" x1="43.8%" y1="0%" x2="100%" y2="100%"><stop offset="14.444444444444446%" stop-color="#97b7bc" stop-opacity="1"></stop><stop offset="85.55555555555554%" stop-color="#97b7bc" stop-opacity="1"></stop></linearGradient></defs><defs><linearGradient id="grad2_0" x1="0%" y1="0%" x2="56.3%" y2="100%"><stop offset="14.444444444444446%" stop-color="#97b7bc" stop-opacity="1"></stop><stop offset="85.55555555555554%" stop-color="#97b7bc" stop-opacity="1"></stop></linearGradient></defs><g transform="translate(960, 0)"><path d="M0 405C-41.5 400.6 -83 396.2 -125.2 385.2C-167.3 374.2 -210 356.7 -236.9 326C-263.8 295.4 -274.9 251.7 -299.3 217.5C-323.8 183.3 -361.5 158.6 -381.4 123.9C-401.2 89.3 -403.1 44.6 -405 0L0 0Z" fill="#08707f"></path></g><g transform="translate(0, 540)"><path d="M0 -405C32.5 -371.3 64.9 -337.6 106.3 -327.2C147.7 -316.7 198 -329.5 225.7 -310.7C253.4 -291.8 258.5 -241.2 285.6 -207.5C312.6 -173.8 361.6 -156.9 385.2 -125.2C408.7 -93.4 406.9 -46.7 405 0L0 0Z" fill="#08707f"></path></g></svg>