<svg id="visual" viewBox="0 0 960 540" width="960" height="540" xmlns="http://www.w3.org/2000/svg" xmlns:xlink="http://www.w3.org/1999/xlink" version="1.1"><rect x="0" y="0" width="960" height="540" fill="#97B7BC"></rect><path d="M0 106L22.8 111.8C45.7 117.7 91.3 129.3 137 144.5C182.7 159.7 228.3 178.3 274 184C319.7 189.7 365.3 182.3 411.2 167.3C457 152.3 503 129.7 548.8 133.2C594.7 136.7 640.3 166.3 686 174.3C731.7 182.3 777.3 168.7 823 167C868.7 165.3 914.3 175.7 937.2 180.8L960 186L960 0L937.2 0C914.3 0 868.7 0 823 0C777.3 0 731.7 0 686 0C640.3 0 594.7 0 548.8 0C503 0 457 0 411.2 0C365.3 0 319.7 0 274 0C228.3 0 182.7 0 137 0C91.3 0 45.7 0 22.8 0L0 0Z" fill="#08707f" stroke-linecap="round" stroke-linejoin="miter"></path></svg>