<svg id="visual" viewBox="0 0 960 540" width="960" height="540" xmlns="http://www.w3.org/2000/svg" xmlns:xlink="http://www.w3.org/1999/xlink" version="1.1"><rect x="0" y="0" width="960" height="540" fill="#7BCBD7"></rect><path d="M0 71L22.8 78C45.7 85 91.3 99 137 97.8C182.7 96.7 228.3 80.3 274 75C319.7 69.7 365.3 75.3 411.2 81.5C457 87.7 503 94.3 548.8 88.2C594.7 82 640.3 63 686 65.2C731.7 67.3 777.3 90.7 823 102.5C868.7 114.3 914.3 114.7 937.2 114.8L960 115L960 0L937.2 0C914.3 0 868.7 0 823 0C777.3 0 731.7 0 686 0C640.3 0 594.7 0 548.8 0C503 0 457 0 411.2 0C365.3 0 319.7 0 274 0C228.3 0 182.7 0 137 0C91.3 0 45.7 0 22.8 0L0 0Z" fill="#08707f" stroke-linecap="round" stroke-linejoin="miter"></path></svg>