<svg id="visual" viewBox="0 0 960 540" width="960" height="540" xmlns="http://www.w3.org/2000/svg" xmlns:xlink="http://www.w3.org/1999/xlink" version="1.1"><rect x="0" y="0" width="960" height="540" fill="#7BCBD7"></rect><path d="M0 99L22.8 95.2C45.7 91.3 91.3 83.7 137 85.5C182.7 87.3 228.3 98.7 274 102.7C319.7 106.7 365.3 103.3 411.2 92.3C457 81.3 503 62.7 548.8 63.8C594.7 65 640.3 86 686 96.7C731.7 107.3 777.3 107.7 823 100.7C868.7 93.7 914.3 79.3 937.2 72.2L960 65L960 0L937.2 0C914.3 0 868.7 0 823 0C777.3 0 731.7 0 686 0C640.3 0 594.7 0 548.8 0C503 0 457 0 411.2 0C365.3 0 319.7 0 274 0C228.3 0 182.7 0 137 0C91.3 0 45.7 0 22.8 0L0 0Z" fill="#08707f" stroke-linecap="round" stroke-linejoin="miter"></path></svg>