<svg id="visual" viewBox="0 0 960 540" width="960" height="540" xmlns="http://www.w3.org/2000/svg" xmlns:xlink="http://www.w3.org/1999/xlink" version="1.1"><rect x="0" y="0" width="960" height="540" fill="#08707f"></rect><path d="M0 111L22.8 119.8C45.7 128.7 91.3 146.3 137 141.7C182.7 137 228.3 110 274 96C319.7 82 365.3 81 411.2 93.5C457 106 503 132 548.8 143.2C594.7 154.3 640.3 150.7 686 136.7C731.7 122.7 777.3 98.3 823 100.5C868.7 102.7 914.3 131.3 937.2 145.7L960 160L960 0L937.2 0C914.3 0 868.7 0 823 0C777.3 0 731.7 0 686 0C640.3 0 594.7 0 548.8 0C503 0 457 0 411.2 0C365.3 0 319.7 0 274 0C228.3 0 182.7 0 137 0C91.3 0 45.7 0 22.8 0L0 0Z" fill="#7BCBD7" stroke-linecap="round" stroke-linejoin="miter"></path></svg>